<?xml version="1.0" standalone="no"?><!-- Generator: Gravit.io --><svg xmlns="http://www.w3.org/2000/svg" xmlns:xlink="http://www.w3.org/1999/xlink" style="isolation:isolate" viewBox="0 0 171 22" width="171" height="22"><defs><clipPath id="_clipPath_dPYqGdop8JVcCt6WV3IchxP4qPrSdW1m"><rect width="171" height="22"/></clipPath></defs><g clip-path="url(#_clipPath_dPYqGdop8JVcCt6WV3IchxP4qPrSdW1m)"><g id="Header-Dark"><g id="Dark"><g id="Group-4"><g id="Group-6"><g id="aptiv-logo"><path d=" M 166.95 6 C 164.713 6 162.901 7.791 162.901 10 C 162.901 12.209 164.713 14 166.95 14 C 169.187 14 171 12.209 171 10 C 171 7.791 169.187 6 166.95 6 Z  M 8.099 10 C 8.099 12.209 6.286 14 4.05 14 C 1.813 14 0 12.209 0 10 C 0 7.791 1.813 6 4.05 6 C 6.286 6 8.099 7.791 8.099 10 L 8.099 10 L 8.099 10 Z " fill-rule="evenodd" fill="rgb(248,64,24)"/><path d=" M 130.808 0 L 136.716 0 L 140.812 16.577 L 142.147 16.577 L 146.213 0 L 152 0 L 145.962 22 L 136.876 22 L 130.808 0 L 130.808 0 Z  M 112.037 22 L 117.68 22 L 117.68 0 L 112.037 0 L 112.037 22 L 112.037 22 Z  M 98.856 5.053 L 92.363 5.053 L 92.363 22 L 86.719 22 L 86.719 5.053 L 80.257 5.053 L 80.257 0 L 98.856 0 L 98.856 5.053 L 98.856 5.053 Z  M 60.961 9.706 C 63.176 9.706 64.025 8.905 64.025 7.334 C 64.025 5.762 63.176 4.992 60.961 4.992 L 56.956 4.992 L 56.956 9.706 L 60.961 9.706 L 60.961 9.706 Z  M 61.69 0 C 66.817 0 69.79 2.65 69.79 7.241 C 69.79 11.894 66.817 14.605 61.69 14.605 L 56.956 14.605 L 56.956 22 L 51.313 22 L 51.313 0 L 61.69 0 L 61.69 0 Z  M 27.252 11.801 L 32.077 11.801 L 30.347 5.424 L 29.013 5.424 L 27.252 11.801 L 27.252 11.801 Z  M 40.511 22 L 34.898 22 L 33.321 16.3 L 26.038 16.3 L 24.492 22 L 19 22 L 25.493 0 L 34.018 0 L 40.511 22 L 40.511 22 L 40.511 22 Z " fill-rule="evenodd" fill="rgb(0,0,0)"/></g></g></g></g></g></g></svg>